<svg width="14.000000" height="14.000000" viewBox="0 0 14 14" fill="none" xmlns="http://www.w3.org/2000/svg" xmlns:xlink="http://www.w3.org/1999/xlink">
	<desc>
			Created with Pixso.
	</desc>
	<defs/>
	<rect id="Iconly/Light/Filter" width="13.744568" height="13.744568" transform="translate(-0.232422 -0.704102)" fill="#FFFFFF" fill-opacity="0"/>
	<path id="Stroke 1" d="M5.68 8.79L2.07 8.79" stroke="#92959E" stroke-opacity="1.000000" stroke-width="0.859035" stroke-linejoin="round" stroke-linecap="round"/>
	<path id="Stroke 3" d="M7.29 3.24L10.9 3.24" stroke="#92959E" stroke-opacity="1.000000" stroke-width="0.859035" stroke-linejoin="round" stroke-linecap="round"/>
	<path id="Stroke 5" d="M3.41 1.87C2.66 1.87 2.05 2.47 2.05 3.21C2.05 3.95 2.66 4.56 3.41 4.56C4.16 4.56 4.76 3.95 4.76 3.21C4.76 2.47 4.16 1.87 3.41 1.87Z" stroke="#92959E" stroke-opacity="1.000000" stroke-width="0.859035" stroke-linejoin="round"/>
	<path id="Stroke 7" d="M9.86 7.43C9.11 7.43 8.51 8.03 8.51 8.77C8.51 9.51 9.11 10.12 9.86 10.12C10.61 10.12 11.22 9.51 11.22 8.77C11.22 8.03 10.61 7.43 9.86 7.43Z" stroke="#92959E" stroke-opacity="1.000000" stroke-width="0.859035" stroke-linejoin="round"/>
</svg>
