<svg width="14.000000" height="14.000000" viewBox="0 0 14 14" fill="none" xmlns="http://www.w3.org/2000/svg" xmlns:xlink="http://www.w3.org/1999/xlink">
	<desc>
			Created with Pixso.
	</desc>
	<defs/>
	<rect id="Iconly/Light/Filter" width="13.744568" height="13.744568" fill="#FFFFFF" fill-opacity="0"/>
	<path id="Stroke 1" d="M5.91 9.5L2.3 9.5" stroke="#92959E" stroke-opacity="1.000000" stroke-width="0.859035" stroke-linejoin="round" stroke-linecap="round"/>
	<path id="Stroke 3" d="M7.52 3.95L11.13 3.95" stroke="#92959E" stroke-opacity="1.000000" stroke-width="0.859035" stroke-linejoin="round" stroke-linecap="round"/>
	<path id="Stroke 5" d="M3.64 2.57C2.89 2.57 2.29 3.17 2.29 3.92C2.29 4.66 2.89 5.26 3.64 5.26C4.39 5.26 4.99 4.66 4.99 3.92C4.99 3.17 4.39 2.57 3.64 2.57Z" stroke="#92959E" stroke-opacity="1.000000" stroke-width="0.859035" stroke-linejoin="round"/>
	<path id="Stroke 7" d="M10.09 8.13C9.35 8.13 8.74 8.73 8.74 9.48C8.74 10.22 9.35 10.82 10.09 10.82C10.84 10.82 11.45 10.22 11.45 9.48C11.45 8.73 10.84 8.13 10.09 8.13Z" stroke="#92959E" stroke-opacity="1.000000" stroke-width="0.859035" stroke-linejoin="round"/>
</svg>
